<?xml version="1.0" standalone="no"?>
<!DOCTYPE svg PUBLIC "-//W3C//DTD SVG 20010904//EN"
 "http://www.w3.org/TR/2001/REC-SVG-20010904/DTD/svg10.dtd">
<svg version="1.0" xmlns="http://www.w3.org/2000/svg"
 width="748.000000pt" height="748.000000pt" viewBox="0 0 748.000000 748.000000"
 preserveAspectRatio="xMidYMid meet">
<metadata>
Created by potrace 1.14, written by Peter Selinger 2001-2017
</metadata>
<g transform="translate(0.000000,748.000000) scale(0.100000,-0.100000)"
fill="#000000" stroke="none">
<path d="M3667 7474 c-1 -1 -60 -4 -132 -8 -71 -3 -143 -8 -160 -11 -16 -2
-70 -9 -120 -15 -567 -70 -1176 -314 -1670 -668 -58 -42 -228 -174 -235 -183
-3 -3 -27 -25 -55 -49 -177 -151 -413 -407 -563 -611 -44 -61 -160 -232 -178
-264 -172 -301 -254 -474 -341 -720 -44 -125 -100 -321 -128 -446 -7 -33 -44
-260 -49 -304 -24 -197 -28 -262 -27 -445 0 -238 14 -410 47 -600 2 -14 8 -52
14 -85 42 -255 167 -635 300 -911 301 -624 764 -1151 1357 -1543 51 -34 96
-61 99 -61 3 0 19 -9 35 -21 108 -77 446 -235 669 -314 118 -42 333 -104 410
-119 14 -3 36 -8 50 -11 69 -17 290 -51 390 -60 36 -4 85 -8 110 -11 54 -5
436 -5 500 0 75 6 172 17 283 32 34 4 191 33 267 49 350 72 834 275 1170 489
135 86 391 274 430 316 3 3 25 23 50 44 296 256 575 596 783 953 81 139 202
387 222 453 4 14 11 30 15 35 9 11 118 325 124 358 3 12 16 65 30 117 14 52
32 136 42 185 9 50 17 97 19 105 6 31 15 97 21 150 3 30 8 71 10 90 13 98 21
553 10 605 -2 11 -7 56 -10 100 -4 44 -9 91 -11 105 -48 303 -91 488 -163 700
-142 416 -352 803 -616 1135 -450 565 -1028 982 -1696 1223 -85 31 -270 89
-306 97 -10 2 -57 13 -104 24 -47 11 -101 23 -120 26 -19 3 -53 10 -75 15 -22
4 -83 13 -135 20 -52 6 -108 13 -125 15 -44 7 -432 24 -438 19z m273 -408
c124 -6 183 -12 250 -22 19 -3 47 -7 62 -9 57 -8 156 -26 223 -41 39 -9 77
-17 85 -19 8 -2 57 -15 109 -30 555 -156 1038 -439 1441 -844 303 -304 523
-630 693 -1028 49 -114 128 -338 142 -398 2 -11 15 -65 29 -120 14 -55 35
-154 46 -220 12 -66 23 -131 25 -145 3 -14 8 -63 11 -110 4 -47 8 -88 11 -92
5 -9 4 -429 -2 -483 -2 -22 -6 -71 -9 -109 -3 -38 -8 -83 -11 -100 -9 -53 -14
-88 -21 -135 -19 -137 -89 -402 -150 -576 -55 -153 -152 -366 -230 -504 -79
-139 -249 -391 -263 -391 -4 0 -23 33 -44 73 -214 420 -585 823 -1012 1100
-195 126 -387 222 -594 296 l-103 38 94 66 c241 168 456 422 584 692 316 666
172 1420 -373 1952 -374 366 -890 548 -1383 489 -425 -52 -841 -280 -1124
-616 -229 -273 -372 -599 -411 -937 -14 -115 -3 -357 19 -469 55 -268 160
-503 324 -724 82 -110 282 -305 396 -385 l99 -69 -64 -22 c-303 -102 -622
-281 -899 -503 -84 -68 -302 -277 -371 -356 -61 -70 -186 -236 -238 -315 -61
-94 -171 -287 -171 -301 0 -20 -18 -6 -51 38 -248 333 -456 773 -549 1163 -5
19 -10 44 -13 55 -10 41 -36 171 -41 210 -4 22 -11 65 -16 95 -9 54 -14 108
-25 245 -8 89 -8 416 -1 475 3 25 8 77 11 115 30 360 160 807 338 1163 189
377 481 753 782 1008 39 32 72 62 75 65 30 33 332 241 440 302 164 93 423 208
600 267 188 62 460 124 640 146 30 3 69 8 85 10 17 2 98 7 180 10 83 4 151 7
152 8 3 3 16 2 223 -8z m-22 -1070 c345 -39 678 -226 886 -498 129 -168 227
-404 251 -603 4 -27 9 -58 11 -68 7 -23 6 -250 -1 -307 -29 -234 -100 -434
-214 -604 -204 -305 -495 -488 -891 -561 -59 -11 -331 -14 -398 -4 -102 14
-124 19 -201 40 -518 140 -876 564 -946 1119 -7 57 -7 283 1 330 18 120 28
166 55 255 152 497 591 854 1108 901 36 4 67 8 69 9 5 4 216 -3 270 -9z m108
-3068 c5 -3 36 -9 69 -13 33 -3 103 -15 155 -25 682 -134 1270 -540 1632
-1127 88 -141 209 -393 198 -412 -18 -34 -248 -229 -388 -328 -140 -100 -230
-154 -422 -255 -157 -83 -433 -189 -630 -242 -115 -31 -372 -82 -455 -91 -33
-3 -78 -8 -100 -10 -22 -2 -66 -7 -97 -10 -70 -8 -399 -8 -483 0 -100 8 -179
16 -206 21 -14 2 -41 6 -60 8 -295 38 -665 149 -957 288 -301 143 -624 364
-846 580 l-45 44 33 75 c71 163 117 247 222 404 261 394 628 702 1057 889 129
56 368 137 447 151 16 3 85 16 110 21 8 2 35 6 60 10 25 3 52 8 61 9 9 2 52 6
95 10 43 4 81 9 83 10 6 6 457 -2 467 -7z"/>
</g>
</svg>
